<?xml version="1.0" encoding="UTF-8" standalone="no"?>
<!-- Created with Inkscape (http://www.inkscape.org/) -->

<svg
   xmlns:dc="http://purl.org/dc/elements/1.1/"
   xmlns:cc="http://creativecommons.org/ns#"
   xmlns:rdf="http://www.w3.org/1999/02/22-rdf-syntax-ns#"
   xmlns:svg="http://www.w3.org/2000/svg"
   xmlns="http://www.w3.org/2000/svg"
   xmlns:xlink="http://www.w3.org/1999/xlink"
   xmlns:sodipodi="http://sodipodi.sourceforge.net/DTD/sodipodi-0.dtd"
   xmlns:inkscape="http://www.inkscape.org/namespaces/inkscape"
   inkscape:version="0.91 r13725"
   version="1.1"
   id="svg2"
   viewBox="0 0 175 50.000001"
   height="50"
   width="175"
   sodipodi:docname="appstream-button2.svg"
   inkscape:export-filename="appstream.png"
   inkscape:export-xdpi="180"
   inkscape:export-ydpi="180">
  <sodipodi:namedview
     inkscape:window-maximized="0"
     inkscape:window-y="0"
     inkscape:window-x="95"
     inkscape:window-height="1012"
     inkscape:window-width="1603"
     inkscape:snap-center="true"
     inkscape:bbox-nodes="false"
     inkscape:snap-bbox="true"
     units="px"
     showgrid="true"
     inkscape:current-layer="text4773"
     inkscape:document-units="px"
     inkscape:cy="23.410876"
     inkscape:cx="121.77108"
     inkscape:zoom="2.8284271"
     inkscape:pageshadow="2"
     inkscape:pageopacity="0.0"
     borderopacity="1.0"
     bordercolor="#666666"
     pagecolor="#ffffff"
     id="base"
     inkscape:snap-bbox-edge-midpoints="true">
    <inkscape:grid
       id="grid4136"
       type="xygrid" />
  </sodipodi:namedview>
  <defs
     id="defs4">
    <linearGradient
       inkscape:collect="always"
       id="linearGradient4719">
      <stop
         style="stop-color:#000000;stop-opacity:1;"
         offset="0"
         id="stop4721" />
      <stop
         id="stop4727"
         offset="0.90476274"
         style="stop-color:#000000;stop-opacity:1" />
      <stop
         style="stop-color:#000000;stop-opacity:0;"
         offset="1"
         id="stop4723" />
    </linearGradient>
    <linearGradient
       inkscape:collect="always"
       id="linearGradient4632">
      <stop
         style="stop-color:#fcfcfc;stop-opacity:1"
         offset="0"
         id="stop4634" />
      <stop
         style="stop-color:#eff0f1;stop-opacity:1"
         offset="1"
         id="stop4636" />
    </linearGradient>
    <style
       type="text/css"
       id="current-color-scheme">
      .ColorScheme-Text {
        color:#4d4d4d;
      }
      .ColorScheme-Background {
        color:#eff0f1;
      }
      .ColorScheme-Highlight {
        color:#3daee9;
      }
      .ColorScheme-ViewText {
        color:#31363b;
      }
      .ColorScheme-ViewBackground {
        color:#fcfcfc;
      }
      .ColorScheme-ViewHover {
        color:#93cee9;
      }
      .ColorScheme-ViewFocus{
        color:#3daee9;
      }
      .ColorScheme-ButtonText {
        color:#31363b;
      }
      .ColorScheme-ButtonBackground {
        color:#eff0f1;
      }
      .ColorScheme-ButtonHover {
        color:#93cee9;
      }
      .ColorScheme-ButtonFocus{
        color:#3daee9;
      }
      </style>
    <linearGradient
       inkscape:collect="always"
       xlink:href="#linearGradient4632"
       id="linearGradient4638"
       x1="95"
       y1="1012.3622"
       x2="95"
       y2="1042.3622"
       gradientUnits="userSpaceOnUse" />
    <filter
       inkscape:collect="always"
       style="color-interpolation-filters:sRGB"
       id="filter4688"
       x="-0.014526316"
       width="1.0290526"
       y="-0.068999998"
       height="1.138">
      <feGaussianBlur
         inkscape:collect="always"
         stdDeviation="1.15"
         id="feGaussianBlur4690" />
    </filter>
    <radialGradient
       inkscape:collect="always"
       xlink:href="#linearGradient4719"
       id="radialGradient4725"
       cx="30"
       cy="1028.3622"
       fx="30"
       fy="1028.3622"
       r="20"
       gradientUnits="userSpaceOnUse"
       gradientTransform="matrix(1.0499991,0,0,1.0499991,-1.4999739,-51.4172)" />
    <linearGradient
       inkscape:collect="always"
       id="linearGradient4588">
      <stop
         style="stop-color:#375a7d;stop-opacity:1"
         offset="0"
         id="stop4590" />
      <stop
         style="stop-color:#4ce0c6;stop-opacity:1"
         offset="1"
         id="stop4592" />
    </linearGradient>
    <linearGradient
       id="linearGradient4420"
       inkscape:collect="always">
      <stop
         id="stop4422"
         offset="0"
         style="stop-color:#375a7d;stop-opacity:1" />
      <stop
         id="stop4424"
         offset="1"
         style="stop-color:#338173;stop-opacity:1" />
    </linearGradient>
    <linearGradient
       id="linearGradient4402"
       inkscape:collect="always">
      <stop
         id="stop4404"
         offset="0"
         style="stop-color:#3b85b5;stop-opacity:1" />
      <stop
         id="stop4406"
         offset="1"
         style="stop-color:#4ce0c6;stop-opacity:1" />
    </linearGradient>
    <linearGradient
       gradientUnits="userSpaceOnUse"
       y2="36.245018"
       x2="21.881519"
       y1="329.51709"
       x1="77.502838"
       id="linearGradient4400"
       xlink:href="#linearGradient4588"
       inkscape:collect="always"
       gradientTransform="matrix(0.259873,0.00803261,-0.00803261,0.259873,4.815969,1000.5714)" />
    <linearGradient
       gradientUnits="userSpaceOnUse"
       y2="10"
       x2="62.449219"
       y1="309.23758"
       x1="109.17695"
       id="linearGradient4418"
       xlink:href="#linearGradient4402"
       inkscape:collect="always"
       gradientTransform="matrix(0.259873,0.00803261,-0.00803261,0.259873,4.815969,1000.5714)" />
    <linearGradient
       gradientUnits="userSpaceOnUse"
       y2="914.17053"
       x2="75.462982"
       y1="1002.6705"
       x1="110.83452"
       id="linearGradient4426"
       xlink:href="#linearGradient4420"
       inkscape:collect="always"
       gradientTransform="matrix(-0.02545522,0.25874801,-0.25874801,-0.02545522,278.96762,1025.73)" />
    <linearGradient
       gradientTransform="matrix(0.259873,0.00803261,-0.00803261,0.259873,4.815969,1000.5714)"
       gradientUnits="userSpaceOnUse"
       y2="-31.372583"
       x2="16.262924"
       y1="268.88226"
       x1="128.54486"
       id="linearGradient4408-2"
       xlink:href="#linearGradient4588"
       inkscape:collect="always" />
    <linearGradient
       gradientUnits="userSpaceOnUse"
       y2="36.245018"
       x2="21.881519"
       y1="329.51709"
       x1="77.502838"
       id="linearGradient4400-2"
       xlink:href="#linearGradient4588"
       inkscape:collect="always"
       gradientTransform="matrix(0.259873,0.00803261,-0.00803261,0.259873,4.815969,1000.5714)" />
    <linearGradient
       inkscape:collect="always"
       xlink:href="#linearGradient4402"
       id="linearGradient4437"
       gradientUnits="userSpaceOnUse"
       gradientTransform="matrix(0.14579907,-0.36203448,0.36203448,0.14579907,94.26076,1049.7914)"
       x1="109.17695"
       y1="309.23758"
       x2="62.449219"
       y2="10" />
    <linearGradient
       inkscape:collect="always"
       xlink:href="#linearGradient4588"
       id="linearGradient4439"
       gradientUnits="userSpaceOnUse"
       gradientTransform="matrix(0.14579907,-0.36203448,0.36203448,0.14579907,94.26076,1049.7914)"
       x1="128.54486"
       y1="268.88226"
       x2="16.262924"
       y2="-31.372583" />
    <linearGradient
       inkscape:collect="always"
       xlink:href="#linearGradient4588"
       id="linearGradient4441"
       gradientUnits="userSpaceOnUse"
       gradientTransform="matrix(0.14579907,-0.36203448,0.36203448,0.14579907,94.26076,1049.7914)"
       x1="77.502838"
       y1="329.51709"
       x2="21.881519"
       y2="36.245018" />
  </defs>
  <metadata
     id="metadata7">
    <rdf:RDF>
      <cc:Work
         rdf:about="">
        <dc:format>image/svg+xml</dc:format>
        <dc:type
           rdf:resource="http://purl.org/dc/dcmitype/StillImage" />
        <dc:title />
      </cc:Work>
    </rdf:RDF>
  </metadata>
  <g
     transform="translate(0,-1002.3622)"
     id="layer1"
     inkscape:groupmode="layer"
     inkscape:label="Layer 1">
    <path
       style="color:#000000;clip-rule:nonzero;display:inline;overflow:visible;visibility:visible;opacity:0.4;isolation:auto;mix-blend-mode:normal;color-interpolation:sRGB;color-interpolation-filters:linearRGB;solid-color:#000000;solid-opacity:1;fill:#000000;fill-opacity:1;fill-rule:evenodd;stroke:none;stroke-width:2;stroke-linecap:butt;stroke-linejoin:miter;stroke-miterlimit:4;stroke-dasharray:none;stroke-dashoffset:0;stroke-opacity:1;marker:none;filter:url(#filter4688);color-rendering:auto;image-rendering:auto;shape-rendering:auto;text-rendering:auto;enable-background:accumulate"
       d="M 30,6 C 25.142187,6.00956 20.453905,7.7868415 16.810547,11 L 8,11 c -1.6620096,0 -3,1.33799 -3,3 l 0,24 c 0,1.66201 1.3379904,3 3,3 l 8.796875,0 c 3.646893,3.216265 8.3406,4.993764 13.203125,5 4.857813,-0.0096 9.546095,-1.786842 13.189453,-5 L 167,41 c 1.66201,0 3,-1.33799 3,-3 l 0,-24 c 0,-1.66201 -1.33799,-3 -3,-3 L 43.203125,11 C 39.556232,7.783735 34.862525,6.0062362 30,6 Z"
       transform="translate(0,1002.3622)"
       id="rect4138-2"
       inkscape:connector-curvature="0"
       sodipodi:nodetypes="ccsssscccsssscc" />
    <path
       style="color:#000000;clip-rule:nonzero;display:inline;overflow:visible;visibility:visible;opacity:1;isolation:auto;mix-blend-mode:normal;color-interpolation:sRGB;color-interpolation-filters:linearRGB;solid-color:#000000;solid-opacity:1;fill:url(#linearGradient4638);fill-opacity:1;fill-rule:evenodd;stroke:none;stroke-width:2;stroke-linecap:butt;stroke-linejoin:miter;stroke-miterlimit:4;stroke-dasharray:none;stroke-dashoffset:0;stroke-opacity:1;marker:none;color-rendering:auto;image-rendering:auto;shape-rendering:auto;text-rendering:auto;enable-background:accumulate"
       d="m 13.000017,1012.3622 153.999963,0 c 1.66201,0 3.00002,1.338 3.00002,3 l 0,23.9999 c 0,1.6621 -1.33801,3.0001 -3.00002,3.0001 l -153.999963,0 C 11.338008,1042.3622 10,1041.0242 10,1039.3621 l 0,-23.9999 c 0,-1.662 1.338008,-3 3.000017,-3 z"
       id="rect4138"
       inkscape:connector-curvature="0"
       sodipodi:nodetypes="sssssssss" />
    <path
       style="color:#000000;clip-rule:nonzero;display:inline;overflow:visible;visibility:visible;opacity:1;isolation:auto;mix-blend-mode:normal;color-interpolation:sRGB;color-interpolation-filters:linearRGB;solid-color:#000000;solid-opacity:1;fill:#cfd5d5;fill-opacity:1;fill-rule:evenodd;stroke:none;stroke-width:2;stroke-linecap:butt;stroke-linejoin:miter;stroke-miterlimit:4;stroke-dasharray:none;stroke-dashoffset:0;stroke-opacity:1;marker:none;color-rendering:auto;image-rendering:auto;shape-rendering:auto;text-rendering:auto;enable-background:accumulate"
       d="m 8,10 c -1.6620096,0 -3,1.33799 -3,3 l 0,24 c 0,1.66201 1.3379904,3 3,3 l 47.949219,0 A 29.999983,29.999983 0 0 0 60,25 29.999983,29.999983 0 0 0 55.9375,10 L 8,10 Z"
       transform="translate(0,1002.3622)"
       id="path4196-3"
       inkscape:connector-curvature="0" />
    <path
       sodipodi:nodetypes="ccccccccssccccscccccscccccc"
       inkscape:connector-curvature="0"
       id="path4138-7-3-1"
       d="m 147.85156,1012.3622 c 0.75017,0.8361 1.41585,1.3187 2.04688,1.1406 0.81425,-0.2297 1.37914,-0.6963 1.88867,-1.1406 z m 7.9336,0 c 0.11516,0.094 0.22438,0.178 0.34765,0.2871 3.48964,3.0884 8.58637,8.7149 5.54102,17.0606 -2.70823,7.421 -3.97054,10.8435 -1.9375,12.6523 l 7.26367,0 c 1.662,0 3.00001,-1.3379 3,-3 l 0,-6.7812 -2.52344,-3.6895 -3.1582,-16.5293 z m -3.9043,1.1289 c -0.83465,-0.08 -1.68736,0.1833 -2.10742,1.166 -0.0631,0.1284 -0.10101,0.2769 -0.14258,0.4336 -0.22333,0.8868 0.52752,2.0628 1.2793,2.8985 0.75191,0.8356 2.08181,0.5843 2.76172,-0.027 0.67976,-0.6117 0.9655,-2.7402 0.21289,-3.5762 -0.35238,-0.3916 -1.16926,-0.8148 -2.00391,-0.8945 z m 10.10547,9.8242 c -0.55044,3.643 -3.21133,6.5407 -4.60156,8.2949 -0.17334,0.2195 -0.29857,0.4384 -0.37891,0.6485 l -0.002,-0 c -0.56658,1.4688 0.95863,2.5745 2.01562,1.4355 1.20791,-1.3017 2.70817,-4.3802 2.9668,-10.3769 z"
       style="opacity:1;fill:url(#linearGradient4437);fill-opacity:1;stroke:none;stroke-width:2;stroke-miterlimit:4;stroke-dasharray:none;stroke-opacity:1" />
    <path
       sodipodi:nodetypes="csccccssccccssccscscscsscccccccssc"
       inkscape:connector-curvature="0"
       id="path4138-7-5-6-8"
       d="m 154.0957,1012.3622 c -0.73065,2.0639 -1.41923,4.9689 -0.0195,5.5117 2.72204,1.0557 2.58261,-3.0472 2.45899,-4.0722 -0.0652,-0.5406 -0.0912,-1.0069 -0.0996,-1.4395 z m 3.41992,0 c 0.0166,0.1242 0.0147,0.2243 0.0449,0.3672 0.18957,0.8947 0.057,2.4785 1.09961,2.8984 1.04275,0.42 2.1291,-0.388 2.4707,-1.2363 0.18983,-0.471 0.0563,-1.3044 -0.27148,-2.0293 z m 4.24219,0 c 3.59044,6.4976 -1.2396,21.9207 0.66407,24.4922 1.37289,1.8545 3.79776,0.1953 4.58593,-1.1836 0.79596,-1.3925 2.12604,-1.5097 2.99219,-0.2598 l 0,-20.0488 c -4e-5,-1.662 -1.338,-3 -3,-3 z m -6.99414,8.082 c -0.892,-0.072 -2.06614,0.663 -2.40234,1.4981 -0.38409,0.9544 -0.27245,2.0491 0.6289,2.4121 0.90121,0.3629 2.2504,-0.1433 2.63477,-1.0977 0.38409,-0.9544 0.40121,-2.3675 -0.5,-2.7304 -0.11267,-0.045 -0.2339,-0.072 -0.36133,-0.082 z m 14.14453,14.8946 c -0.58573,-0.01 -1.76987,0.9047 -2.06836,1.6914 -0.13183,0.359 -0.0866,0.6914 0.28321,0.8984 1.18359,0.6626 1.61463,0.2405 2.14843,-0.623 0.74649,-1.4845 0.48857,-1.9585 -0.36328,-1.9668 z m 1.0918,2.1386 c -0.685,1.2844 -2.29396,2.979 -4.29492,4.8848 l 1.29492,0 c 1.662,0 3.00001,-1.3379 3,-3 z"
       style="opacity:1;fill:url(#linearGradient4439);fill-opacity:1;stroke:none;stroke-width:2;stroke-miterlimit:4;stroke-dasharray:none;stroke-opacity:1" />
    <path
       inkscape:connector-curvature="0"
       id="path4138-7-5-1-9-7"
       d="m 166.46875,1012.3622 c 0.12464,1.4108 0.17229,2.8479 -0.041,4.0078 -0.75202,4.0892 0.61667,6.21 2.92188,6.1973 0.24061,-0 0.45356,-0.041 0.65039,-0.1016 l -2e-5,-7.1035 c -4e-5,-1.662 -1.338,-3 -3,-3 l -0.53125,0 z"
       style="opacity:1;fill:url(#linearGradient4441);fill-opacity:1;stroke:none;stroke-width:2;stroke-miterlimit:4;stroke-dasharray:none;stroke-opacity:1" />
    <g
       style="font-style:normal;font-variant:normal;font-weight:normal;font-stretch:normal;font-size:13.75px;line-height:125%;font-family:Ubuntu;-inkscape-font-specification:Ubuntu;letter-spacing:0px;word-spacing:-4.84000015px;fill:#4d4d4d;fill-opacity:1;stroke:none;stroke-width:1px;stroke-linecap:butt;stroke-linejoin:miter;stroke-opacity:1"
       id="text4773"
       transform="translate(-8,0)">
      <path
         style="font-style:normal;font-variant:normal;font-weight:normal;font-stretch:normal;font-size:13.75px;line-height:125%;font-family:Ubuntu;-inkscape-font-specification:Ubuntu;letter-spacing:0px;word-spacing:-4.84000015px;fill:#4d4d4d;fill-opacity:1;stroke:none;stroke-width:1px;stroke-linecap:butt;stroke-linejoin:miter;stroke-opacity:1"
         d="m 104.66625,1029.1797 q 0,-1.2512 -0.61875,-1.925 -0.61875,-0.6737 -1.65,-0.6737 -0.5775,0 -0.9075,0.041 -0.31625,0.041 -0.50875,0.096 l 0,4.51 q 0.23375,0.1925 0.67375,0.3712 0.44,0.1788 0.9625,0.1788 0.55,0 0.935,-0.1925 0.39875,-0.2063 0.64625,-0.55 0.2475,-0.3575 0.3575,-0.825 0.11,-0.4813 0.11,-1.0313 z m 1.33375,0 q 0,0.8113 -0.22,1.4988 -0.20625,0.6875 -0.61875,1.1825 -0.4125,0.495 -1.0175,0.77 -0.59125,0.275 -1.36125,0.275 -0.61875,0 -1.1,-0.165 -0.4675,-0.165 -0.70125,-0.3163 l 0,2.86 -1.27875,0 0,-9.4737 q 0.45375,-0.11 1.1275,-0.2338 0.6875,-0.1375 1.58125,-0.1375 0.825,0 1.485,0.2613 0.66,0.2612 1.1275,0.7425 0.4675,0.4812 0.715,1.1825 0.26125,0.6875 0.26125,1.5537 z"
         id="path4939"
         inkscape:connector-curvature="0" />
      <path
         style="font-style:normal;font-variant:normal;font-weight:normal;font-stretch:normal;font-size:13.75px;line-height:125%;font-family:Ubuntu;-inkscape-font-specification:Ubuntu;letter-spacing:0px;word-spacing:-4.84000015px;fill:#4d4d4d;fill-opacity:1;stroke:none;stroke-width:1px;stroke-linecap:butt;stroke-linejoin:miter;stroke-opacity:1"
         d="m 112.7766,1029.1797 q 0,-1.2512 -0.61875,-1.925 -0.61875,-0.6737 -1.65,-0.6737 -0.5775,0 -0.9075,0.041 -0.31625,0.041 -0.50875,0.096 l 0,4.51 q 0.23375,0.1925 0.67375,0.3712 0.44,0.1788 0.9625,0.1788 0.55,0 0.935,-0.1925 0.39875,-0.2063 0.64625,-0.55 0.2475,-0.3575 0.3575,-0.825 0.11,-0.4813 0.11,-1.0313 z m 1.33375,0 q 0,0.8113 -0.22,1.4988 -0.20625,0.6875 -0.61875,1.1825 -0.4125,0.495 -1.0175,0.77 -0.59125,0.275 -1.36125,0.275 -0.61875,0 -1.1,-0.165 -0.4675,-0.165 -0.70125,-0.3163 l 0,2.86 -1.27875,0 0,-9.4737 q 0.45375,-0.11 1.1275,-0.2338 0.6875,-0.1375 1.58125,-0.1375 0.825,0 1.485,0.2613 0.66,0.2612 1.1275,0.7425 0.4675,0.4812 0.715,1.1825 0.26125,0.6875 0.26125,1.5537 z"
         id="path4941"
         inkscape:connector-curvature="0" />
      <path
         style="font-style:normal;font-variant:normal;font-weight:normal;font-stretch:normal;font-size:13.75px;line-height:125%;font-family:Ubuntu;-inkscape-font-specification:Ubuntu;letter-spacing:0px;word-spacing:-4.84000015px;fill:#4d4d4d;fill-opacity:1;stroke:none;stroke-width:1px;stroke-linecap:butt;stroke-linejoin:miter;stroke-opacity:1"
         d="m 126.2425,1025.591 2.70875,0 0,1.0725 -2.70875,0 0,3.3 q 0,0.5362 0.0825,0.8937 0.0825,0.3438 0.2475,0.55 0.165,0.1925 0.4125,0.275 0.2475,0.082 0.5775,0.082 0.5775,0 0.92125,-0.1237 0.3575,-0.1375 0.495,-0.1925 l 0.2475,1.0587 q -0.1925,0.096 -0.67375,0.2338 -0.48125,0.1512 -1.1,0.1512 -0.72875,0 -1.21,-0.1787 -0.4675,-0.1925 -0.75625,-0.5638 -0.28875,-0.3712 -0.4125,-0.9075 -0.11,-0.55 -0.11,-1.265 l 0,-6.38 1.27875,-0.22 0,2.2138 z"
         id="path4945"
         inkscape:connector-curvature="0" />
      <path
         style="font-style:normal;font-variant:normal;font-weight:normal;font-stretch:normal;font-size:13.75px;line-height:125%;font-family:Ubuntu;-inkscape-font-specification:Ubuntu;letter-spacing:0px;word-spacing:-4.84000015px;fill:#4d4d4d;fill-opacity:1;stroke:none;stroke-width:1px;stroke-linecap:butt;stroke-linejoin:miter;stroke-opacity:1"
         d="m 133.21848,1025.4397 q 0.165,0 0.37125,0.027 0.22,0.014 0.42625,0.055 0.20625,0.027 0.37125,0.069 0.17875,0.027 0.26125,0.055 l -0.22,1.1137 q -0.15125,-0.055 -0.50875,-0.1237 -0.34375,-0.082 -0.89375,-0.082 -0.3575,0 -0.715,0.082 -0.34375,0.069 -0.45375,0.096 l 0,6.0088 -1.27875,0 0,-6.8475 q 0.45375,-0.165 1.1275,-0.3025 0.67375,-0.1513 1.5125,-0.1513 z"
         id="path4947"
         inkscape:connector-curvature="0" />
      <path
         style="font-style:normal;font-variant:normal;font-weight:normal;font-stretch:normal;font-size:13.75px;line-height:125%;font-family:Ubuntu;-inkscape-font-specification:Ubuntu;letter-spacing:0px;word-spacing:-4.84000015px;fill:#4d4d4d;fill-opacity:1;stroke:none;stroke-width:1px;stroke-linecap:butt;stroke-linejoin:miter;stroke-opacity:1"
         d="m 135.49711,1029.1797 q 0,-0.9487 0.275,-1.65 0.275,-0.715 0.72875,-1.1825 0.45375,-0.4675 1.045,-0.7012 0.59125,-0.2338 1.21,-0.2338 1.44375,0 2.21375,0.9075 0.77,0.8938 0.77,2.7363 0,0.082 0,0.22 0,0.1237 -0.0138,0.2337 l -4.895,0 q 0.0825,1.1138 0.64625,1.6913 0.56375,0.5775 1.76,0.5775 0.67375,0 1.1275,-0.11 0.4675,-0.1238 0.70125,-0.2338 l 0.17875,1.0725 q -0.23375,0.1238 -0.825,0.2613 -0.5775,0.1375 -1.32,0.1375 -0.935,0 -1.6225,-0.275 -0.67375,-0.2888 -1.11375,-0.7838 -0.44,-0.495 -0.66,-1.1687 -0.20625,-0.6875 -0.20625,-1.4988 z m 4.90875,-0.7012 q 0.0137,-0.8663 -0.44,-1.4163 -0.44,-0.5637 -1.22375,-0.5637 -0.44,0 -0.78375,0.1787 -0.33,0.165 -0.56375,0.44 -0.23375,0.275 -0.37125,0.6325 -0.12375,0.3575 -0.165,0.7288 l 3.5475,0 z"
         id="path4949"
         inkscape:connector-curvature="0" />
      <path
         style="font-style:normal;font-variant:normal;font-weight:normal;font-stretch:normal;font-size:13.75px;line-height:125%;font-family:Ubuntu;-inkscape-font-specification:Ubuntu;letter-spacing:0px;word-spacing:-4.84000015px;fill:#4d4d4d;fill-opacity:1;stroke:none;stroke-width:1px;stroke-linecap:butt;stroke-linejoin:miter;stroke-opacity:1"
         d="m 145.99652,1031.8197 q 0.45375,0 0.7975,-0.014 0.3575,-0.027 0.59125,-0.082 l 0,-2.1313 q -0.1375,-0.069 -0.45375,-0.11 -0.3025,-0.055 -0.7425,-0.055 -0.28875,0 -0.61875,0.041 -0.31625,0.041 -0.59125,0.1787 -0.26125,0.1238 -0.44,0.3575 -0.17875,0.22 -0.17875,0.5913 0,0.6875 0.44,0.9625 0.44,0.2612 1.19625,0.2612 z m -0.11,-6.4075 q 0.77,0 1.2925,0.2063 0.53625,0.1925 0.8525,0.5637 0.33,0.3575 0.4675,0.8663 0.1375,0.495 0.1375,1.1 l 0,4.4687 q -0.165,0.027 -0.4675,0.082 -0.28875,0.041 -0.66,0.082 -0.37125,0.041 -0.81125,0.069 -0.42625,0.041 -0.8525,0.041 -0.605,0 -1.11375,-0.1237 -0.50875,-0.1238 -0.88,-0.385 -0.37125,-0.275 -0.5775,-0.715 -0.20625,-0.44 -0.20625,-1.0588 0,-0.5912 0.23375,-1.0175 0.2475,-0.4262 0.66,-0.6875 0.4125,-0.2612 0.9625,-0.385 0.55,-0.1237 1.155,-0.1237 0.1925,0 0.39875,0.027 0.20625,0.014 0.385,0.055 0.1925,0.027 0.33,0.055 0.1375,0.027 0.1925,0.041 l 0,-0.3575 q 0,-0.3162 -0.0687,-0.6187 -0.0688,-0.3163 -0.2475,-0.55 -0.17875,-0.2475 -0.495,-0.385 -0.3025,-0.1513 -0.7975,-0.1513 -0.6325,0 -1.11375,0.096 -0.4675,0.082 -0.70125,0.1787 l -0.15125,-1.0587 q 0.2475,-0.11 0.825,-0.2063 0.5775,-0.11 1.25125,-0.11 z"
         id="path4951"
         inkscape:connector-curvature="0" />
      <path
         style="font-style:normal;font-variant:normal;font-weight:normal;font-stretch:normal;font-size:13.75px;line-height:125%;font-family:Ubuntu;-inkscape-font-specification:Ubuntu;letter-spacing:0px;word-spacing:-4.84000015px;fill:#4d4d4d;fill-opacity:1;stroke:none;stroke-width:1px;stroke-linecap:butt;stroke-linejoin:miter;stroke-opacity:1"
         d="m 150.74694,1025.7972 q 0.44,-0.11 1.155,-0.2337 0.72875,-0.1238 1.6775,-0.1238 0.6875,0 1.155,0.1925 0.4675,0.1788 0.78375,0.5363 0.0962,-0.069 0.3025,-0.1925 0.20625,-0.1238 0.50875,-0.2338 0.3025,-0.1237 0.67375,-0.2062 0.37125,-0.096 0.7975,-0.096 0.825,0 1.3475,0.2475 0.5225,0.2338 0.81125,0.6738 0.3025,0.44 0.39875,1.045 0.11,0.605 0.11,1.32 l 0,4.015 -1.27875,0 0,-3.74 q 0,-0.6325 -0.0687,-1.0863 -0.055,-0.4537 -0.23375,-0.7562 -0.165,-0.3025 -0.4675,-0.44 -0.28875,-0.1513 -0.75625,-0.1513 -0.64625,0 -1.0725,0.1788 -0.4125,0.165 -0.56375,0.3025 0.11,0.3575 0.165,0.7837 0.055,0.4263 0.055,0.8938 l 0,4.015 -1.27875,0 0,-3.74 q 0,-0.6325 -0.0687,-1.0863 -0.0688,-0.4537 -0.2475,-0.7562 -0.165,-0.3025 -0.4675,-0.44 -0.28875,-0.1513 -0.7425,-0.1513 -0.1925,0 -0.4125,0.014 -0.22,0.014 -0.42625,0.041 -0.1925,0.014 -0.3575,0.041 -0.165,0.027 -0.22,0.041 l 0,6.0363 -1.27875,0 0,-6.9438 z"
         id="path4953"
         inkscape:connector-curvature="0" />
      <g
         style="font-style:normal;font-variant:normal;font-weight:normal;font-stretch:normal;font-size:40px;line-height:125%;font-family:Ubuntu;-inkscape-font-specification:Ubuntu;letter-spacing:0px;word-spacing:0px;fill:#4d4d4d;fill-opacity:1;stroke:none;stroke-width:1px;stroke-linecap:butt;stroke-linejoin:miter;stroke-opacity:1"
         id="text4187"
         transform="matrix(0.42396483,0,0,0.42396483,85.11626,584.06789)">
        <path
           d="m 79.706797,1056.6732 q 6.08,0 6.08,-4.16 0,-1.28 -0.56,-2.16 -0.52,-0.92 -1.44,-1.56 -0.92,-0.68 -2.12,-1.16 -1.16,-0.48 -2.48,-0.96 -1.52,-0.52 -2.88,-1.16 -1.36,-0.68 -2.36,-1.56 -1,-0.92 -1.6,-2.16 -0.56,-1.24 -0.56,-3 0,-3.64 2.48,-5.68 2.48,-2.04 6.84,-2.04 2.52,0 4.56,0.56 2.08,0.52 3.04,1.16 l -1.24,3.16 q -0.84,-0.52 -2.52,-1 -1.64,-0.52 -3.84,-0.52 -1.12,0 -2.08,0.24 -0.96,0.24 -1.68,0.72 -0.72,0.48 -1.16,1.24 -0.4,0.72 -0.4,1.72 0,1.12 0.44,1.88 0.44,0.76 1.24,1.36 0.8,0.56 1.84,1.04 1.08,0.48 2.36,0.96 1.8,0.72 3.28,1.44 1.52,0.72 2.6,1.72 1.12,1 1.72,2.4 0.6,1.36 0.6,3.32 0,3.64 -2.68,5.6 -2.64,1.96 -7.48,1.96 -1.64,0 -3.04,-0.24 -1.36,-0.2 -2.44,-0.48 -1.08,-0.32 -1.88,-0.64 -0.76,-0.36 -1.2,-0.6 l 1.16,-3.2 q 0.92,0.52 2.8,1.16 1.88,0.64 4.6,0.64 z"
           id="path4192"
           inkscape:connector-curvature="0"
           style="fill:#4d4d4d;fill-opacity:1" />
      </g>
    </g>
    <path
       style="color:#000000;clip-rule:nonzero;display:inline;overflow:visible;visibility:visible;opacity:1;isolation:auto;mix-blend-mode:normal;color-interpolation:sRGB;color-interpolation-filters:linearRGB;solid-color:#000000;solid-opacity:1;fill:#4cdfc6;fill-opacity:1;fill-rule:evenodd;stroke:none;stroke-width:2;stroke-linecap:butt;stroke-linejoin:miter;stroke-miterlimit:4;stroke-dasharray:none;stroke-dashoffset:0;stroke-opacity:1;marker:none;color-rendering:auto;image-rendering:auto;shape-rendering:auto;text-rendering:auto;enable-background:accumulate"
       d="m 67.88312,1023.0661 c 0.531008,-0.1519 1.256305,0.3014 1.408175,0.8323 0.151871,0.531 -0.155455,1.0846 -0.686463,1.2365 -0.531007,0.1519 -1.576398,0.8205 -1.728269,0.2894 -0.15187,-0.531 0.475549,-2.2063 1.006557,-2.3582 z"
       id="path4883"
       inkscape:connector-curvature="0"
       sodipodi:nodetypes="sssss" />
    <path
       style="color:#000000;clip-rule:nonzero;display:inline;overflow:visible;visibility:visible;opacity:1;isolation:auto;mix-blend-mode:normal;color-interpolation:sRGB;color-interpolation-filters:linearRGB;solid-color:#000000;solid-opacity:1;fill:#4cdfc6;fill-opacity:1;fill-rule:evenodd;stroke:none;stroke-width:2;stroke-linecap:butt;stroke-linejoin:miter;stroke-miterlimit:4;stroke-dasharray:none;stroke-dashoffset:0;stroke-opacity:1;marker:none;color-rendering:auto;image-rendering:auto;shape-rendering:auto;text-rendering:auto;enable-background:accumulate"
       d="m 69,1030.3622 c 0,0.5523 0.232584,1.6898 -0.319701,1.6898 -0.552285,0 -1.680299,-1.1375 -1.680299,-1.6898 0,-0.5523 0.447715,-1 1,-1 0.552285,0 1,0.4477 1,1 z"
       id="path4885"
       inkscape:connector-curvature="0"
       sodipodi:nodetypes="sssss" />
    <path
       style="fill:#48c9c2;fill-opacity:1;fill-rule:evenodd;stroke:none;stroke-width:1px;stroke-linecap:butt;stroke-linejoin:miter;stroke-opacity:1"
       d="m 70,1033.3622 5,-12 2,0 -5,12 z"
       id="path4887"
       inkscape:connector-curvature="0"
       sodipodi:nodetypes="ccccc" />
    <path
       style="fill:#3f8a97;fill-opacity:1;fill-rule:evenodd;stroke:none;stroke-width:1px;stroke-linecap:butt;stroke-linejoin:miter;stroke-opacity:1"
       d="m 83,1021.3622 -5,12 2,0 0.83398,-2 6.33204,0 0.83398,2 2,0 -5,-12 -2,0 z m 1,2.4004 2.33398,5.5996 -4.66796,0 L 84,1023.7626 Z"
       id="path4887-8"
       inkscape:connector-curvature="0" />
    <path
       style="fill:#44adaa;fill-opacity:1;fill-rule:evenodd;stroke:none;stroke-width:1px;stroke-linecap:butt;stroke-linejoin:miter;stroke-opacity:1"
       d="m 74,1033.3622 5,-12 2,0 -5,12 z"
       id="path4887-6"
       inkscape:connector-curvature="0"
       sodipodi:nodetypes="ccccc" />
    <path
       style="color:#000000;clip-rule:nonzero;display:inline;overflow:visible;visibility:visible;opacity:0.2;isolation:auto;mix-blend-mode:normal;color-interpolation:sRGB;color-interpolation-filters:linearRGB;solid-color:#000000;solid-opacity:1;fill:url(#radialGradient4725);fill-opacity:1;fill-rule:evenodd;stroke:none;stroke-width:2;stroke-linecap:butt;stroke-linejoin:miter;stroke-miterlimit:4;stroke-dasharray:none;stroke-dashoffset:0;stroke-opacity:1;marker:none;color-rendering:auto;image-rendering:auto;shape-rendering:auto;text-rendering:auto;enable-background:accumulate"
       d="m 16.433594,1012.3622 a 20.999983,20.999983 0 0 0 -7.433594,16 20.999983,20.999983 0 0 0 5.380859,14 l 31.242188,0 a 20.999983,20.999983 0 0 0 5.376953,-14 20.999983,20.999983 0 0 0 -7.404297,-16 l -27.162109,0 z"
       id="path4196-8"
       inkscape:connector-curvature="0" />
    <path
       style="color:#000000;clip-rule:nonzero;display:inline;overflow:visible;visibility:visible;opacity:1;isolation:auto;mix-blend-mode:normal;color-interpolation:sRGB;color-interpolation-filters:linearRGB;solid-color:#000000;solid-opacity:1;fill:#2b3c4d;fill-opacity:1;fill-rule:evenodd;stroke:none;stroke-width:2;stroke-linecap:butt;stroke-linejoin:miter;stroke-miterlimit:4;stroke-dasharray:none;stroke-dashoffset:0;stroke-opacity:1;marker:none;color-rendering:auto;image-rendering:auto;shape-rendering:auto;text-rendering:auto;enable-background:accumulate"
       d="M 30 5 A 20 20 0 0 0 22.357422 6.5371094 L 21.8125 7.375 L 21.160156 7.0722656 A 20 20 0 0 0 20.488281 7.4277344 L 20.5625 7.5 L 12.5 17.375 L 17.375 32.25 L 30 40.6875 L 40.75 39.5625 L 47.375 33.5 L 49.1875 28.3125 L 49.136719 19.248047 A 20 20 0 0 0 30 5 z "
       transform="translate(0,1002.3622)"
       id="path4196" />
    <path
       sodipodi:nodetypes="csssscsssscccccc"
       inkscape:connector-curvature="0"
       id="path4286"
       d="m 46.190575,1034.7592 c -2.1993,3.1088 -3.517575,2.4249 -4.688083,2.5869 -1.170508,0.1619 -3.792715,-0.8812 -4.965429,-2.105 -1.172714,-1.2237 -2.837374,-1.2028 -3.297861,-0.2782 -0.460387,0.9245 0.380183,3.1779 2.433252,2.9642 2.053069,-0.2137 4.326585,0.1485 4.031083,1.274 -0.295403,1.1256 -8.27926,1.0623 -10.23708,-2.0398 -1.957821,-3.1022 -3.555685,-4.2292 -5.292423,-3.4764 -1.736639,0.7528 -5.718176,-3.8416 -4.169755,-7.8457 1.54852,-4.0042 4.118035,-2.2135 5.063821,-4.9977 2.315835,-6.8171 -4.726124,-6.8844 -4.726124,-6.8844 l -7.9471,12.2419 5.605606,16.2538 21.789633,1.8177 8.029883,-8.7045 z"
       style="fill:url(#linearGradient4426);fill-opacity:1;fill-rule:evenodd;stroke:none;stroke-width:1px;stroke-linecap:butt;stroke-linejoin:miter;stroke-opacity:1"
       inkscape:transform-center-x="-0.10743696"
       inkscape:transform-center-y="1.7516" />
    <path
       sodipodi:nodetypes="cccccccccc"
       inkscape:connector-curvature="0"
       id="rect4198"
       d="m 29.075195,1007.3622 0,20.1719 -4.510742,-4.5108 -1.414062,1.4141 6.924804,6.9248 6.924805,-6.9248 -1.414063,-1.4141 -4.510742,4.5108 0,-20.1719 z"
       style="color:#000000;clip-rule:nonzero;display:inline;overflow:visible;visibility:visible;opacity:1;isolation:auto;mix-blend-mode:normal;color-interpolation:sRGB;color-interpolation-filters:linearRGB;solid-color:#000000;solid-opacity:1;fill:#cfd5d5;fill-opacity:1;fill-rule:evenodd;stroke:none;stroke-width:2;stroke-linecap:butt;stroke-linejoin:miter;stroke-miterlimit:4;stroke-dasharray:none;stroke-dashoffset:0;stroke-opacity:1;marker:none;color-rendering:auto;image-rendering:auto;shape-rendering:auto;text-rendering:auto;enable-background:accumulate" />
    <path
       inkscape:connector-curvature="0"
       id="path4138-7-5-1"
       d="m 49.133546,1021.6283 c -0.678894,3.9656 -2.20885,7.6701 -1.551293,8.6535 0.567299,0.8485 1.241706,1.9399 1.416627,3.2895 a 20.000001,20.000001 0 0 0 0.991572,-5.5912 20.000001,20.000001 0 0 0 -0.856906,-6.3518 z m -0.917841,13.953 c -0.583697,-0.1337 -3.722897,2.0643 -5.927917,2.443 -2.729776,0.4688 -3.740829,1.8116 -3.203507,3.2502 0.537309,1.4386 2.38327,0.9007 4.119169,0.2524 0.876721,-0.3274 2.071313,-1.4077 3.089225,-2.5874 a 20.000001,20.000001 0 0 0 1.930657,-3.3521 c -0.0036,0 -0.0038,-0.01 -0.0076,-0.01 z m -4.032177,5.8469 c -4.810696,3.091 -9.76659,0.41 -10.133409,4.1616 -0.05062,0.5177 -0.241499,0.9926 -0.519156,1.4339 a 20.000001,20.000001 0 0 0 10.652565,-5.5955 z"
       style="opacity:1;fill:url(#linearGradient4400);fill-opacity:1;stroke:none;stroke-width:2;stroke-miterlimit:4;stroke-dasharray:none;stroke-opacity:1" />
    <g
       transform="matrix(-0.06711248,0.99774542,-0.99774542,-0.06711248,1057.0593,1066.3787)"
       id="g4379">
      <path
         style="opacity:1;fill:url(#linearGradient4418);fill-opacity:1;stroke:none;stroke-width:2;stroke-miterlimit:4;stroke-dasharray:none;stroke-opacity:1"
         d="m 32.023257,1007.4855 c 0.118777,0.2301 0.190446,0.3797 0.328181,0.6355 2.029488,3.7695 10.501748,3.1204 11.583525,8.0961 1.081778,4.9757 -4.710522,9.3489 -3.650242,10.8123 1.060281,1.4635 3.096468,0.8117 1.966608,3.7032 -1.129858,2.8914 -3.478515,7.3709 -9.39665,7.3831 -5.918135,0.012 -8.260237,0 -8.529444,2.4017 -0.269206,2.3978 -7.959652,-3.3668 -10.385567,-2.7265 -0.333756,0.088 -0.640645,0.1078 -0.934997,0.094 a 20.000001,20.000001 0 0 0 2.425061,3.1585 l 9.046711,2.9899 5.792917,3.3153 a 20.000001,20.000001 0 0 0 0.302951,0 l 4.126266,-5.7933 10.403015,-6.246 3.785081,-10.9391 -1.305952,-6.4907 a 20.000001,20.000001 0 0 0 -2.617313,-3.7662 l -5.859255,-3.5714 -4.02351,-2.3989 -0.0065,-0.1058 a 20.000001,20.000001 0 0 0 -3.050883,-0.5496 z m 9.543318,6.6477 c -0.669812,0.066 -0.670755,1.9639 -0.555795,3.1249 0.114958,1.161 0.453508,2.6667 1.123322,2.6004 0.669813,-0.066 1.416216,-1.679 1.301256,-2.84 -0.114961,-1.1611 -1.198968,-2.9516 -1.868783,-2.8853 z m -2.032155,13.0841 c -0.09478,-0.01 -0.195636,0 -0.303194,0.01 -0.605831,0.064 -1.168769,0.8035 -1.518658,1.4655 -0.34989,0.6621 0.111673,1.4355 0.650292,1.7202 0.538619,0.2846 1.936115,-0.025 2.286004,-0.6876 0.32802,-0.6206 0.307551,-2.4342 -1.114444,-2.5082 z m -9.345188,8.563 c -1.048585,-0.017 -1.389044,1.1895 -0.434063,1.5889 1.091408,0.4564 3.360763,0.6886 7.170089,-0.5268 -2.404486,0.4924 -4.828167,-0.5062 -6.244415,-0.9727 -0.177031,-0.058 -0.341814,-0.087 -0.491611,-0.089 z"
         id="path4138-7-3"
         inkscape:connector-curvature="0" />
      <path
         style="opacity:1;fill:url(#linearGradient4408-2);fill-opacity:1;stroke:none;stroke-width:2;stroke-miterlimit:4;stroke-dasharray:none;stroke-opacity:1"
         d="m 33.054902,1007.6151 c -0.02956,0.2982 -0.0061,0.6541 0.155593,1.1617 0.754491,2.3684 13.009946,1.5533 13.419805,12.0961 0.204927,5.2715 -1.390144,8.693 -3.615144,8.5389 -1.237204,-0.086 -4.480222,-0.04 -4.503181,1.2345 -0.03504,1.9446 2.497233,0.9149 3.109832,0.6022 2.030984,-1.0368 2.969028,-0.8816 3.018459,0.4607 0.223221,6.0615 -14.690563,6.3996 -16.081296,8.515 -0.84441,1.2844 0.750426,2.4195 1.793708,2.5957 1.166418,0.197 1.516288,1.1619 0.637298,2.0774 -1.663112,1.7322 -12.604718,-6.4481 -17.734936,-6.641 a 20.000001,20.000001 0 0 0 16.127059,9.0964 20.000001,20.000001 0 0 0 5.685111,-0.6567 c 0.866921,-1.5863 3.152359,-1.677 5.888749,-2.6299 a 20.000001,20.000001 0 0 0 8.907588,-14.5091 c -0.03388,-2.2838 -0.348966,-4.3045 -0.615362,-5.5685 -0.06356,-0.3016 0.03618,-0.7126 0.21653,-1.1892 a 20.000001,20.000001 0 0 0 -16.409813,-15.1842 z m -0.01117,1.942 c -0.07069,0 -0.133092,0.028 -0.182318,0.082 -0.196903,0.2155 -0.205926,0.6531 0.05642,0.8928 0.262356,0.2397 0.696878,0.1904 0.893781,-0.025 0.196905,-0.2155 0.187054,-0.3586 -0.0753,-0.5983 -0.196768,-0.1798 -0.480502,-0.3623 -0.69259,-0.3517 z m 13.303847,12.4971 c -0.668525,3.946 -1.712795,4.1348 -3.105243,5.0021 -1.004124,0.6255 0.598818,1.9869 1.644379,0.473 0.981572,-1.4213 1.345816,-2.067 1.460864,-5.4751 z m -10.774153,8.4544 c -0.685036,-0.021 -1.343883,0.2996 -1.363881,0.9466 -0.02,0.6469 0.606435,1.3748 1.291471,1.396 0.685035,0.021 1.572289,-0.2926 1.592287,-0.9395 0.02,-0.647 -0.834841,-1.382 -1.519877,-1.4031 z m 7.815059,0.7965 c -0.214209,0.01 -0.494075,0.1087 -0.860487,0.3388 -0.515927,0.324 -1.536984,0.6044 -1.560119,1.3528 -0.02313,0.7485 0.731673,1.242 1.340595,1.2608 0.608921,0.019 1.729059,-0.8759 1.752193,-1.6244 0.01735,-0.5613 -0.02954,-1.3544 -0.672182,-1.328 z m -31.360803,4.8088 a 20.000001,20.000001 0 0 0 0.727829,1.361 c 1.111029,-0.2819 2.409405,-0.4358 4.209513,0.2376 -1.895342,-1.1796 -3.651297,-1.5808 -4.937342,-1.5986 z m 17.435369,6.913 c -0.254757,0 -0.451911,0.1045 -0.496454,0.3833 -0.142538,0.8923 0.220706,1.0643 0.883277,1.1998 1.099708,0.1259 1.336888,-0.1432 1.146488,-0.6778 -0.130898,-0.3676 -0.97285,-0.8993 -1.533311,-0.9053 z"
         id="path4138-7-5-6"
         inkscape:connector-curvature="0" />
      <path
         style="opacity:1;fill:url(#linearGradient4400-2);fill-opacity:1;stroke:none;stroke-width:2;stroke-miterlimit:4;stroke-dasharray:none;stroke-opacity:1"
         d="m 49.133546,1021.6283 c -0.678894,3.9656 -2.20885,7.6701 -1.551293,8.6535 0.567299,0.8485 1.241706,1.9399 1.416627,3.2895 a 20.000001,20.000001 0 0 0 0.991572,-5.5912 20.000001,20.000001 0 0 0 -0.856906,-6.3518 z m -0.917841,13.953 c -0.583697,-0.1337 -3.722897,2.0643 -5.927917,2.443 -2.729776,0.4688 -3.740829,1.8116 -3.203507,3.2502 0.537309,1.4386 2.38327,0.9007 4.119169,0.2524 0.876721,-0.3274 2.071314,-1.4077 3.089225,-2.5874 a 20.000001,20.000001 0 0 0 1.930657,-3.3521 c -0.0036,0 -0.0038,-0.01 -0.0076,-0.01 z m -4.032177,5.8469 c -4.810696,3.091 -9.76659,0.41 -10.133409,4.1616 -0.05062,0.5177 -0.241499,0.9926 -0.519156,1.4339 a 20.000001,20.000001 0 0 0 10.652565,-5.5955 z"
         id="path4138-7-5-1-9"
         inkscape:connector-curvature="0" />
    </g>
  </g>
</svg>
