<?xml version="1.0" encoding="UTF-8" standalone="no"?>
<!-- Created with Inkscape (http://www.inkscape.org/) -->

<svg
   xmlns:dc="http://purl.org/dc/elements/1.1/"
   xmlns:cc="http://creativecommons.org/ns#"
   xmlns:rdf="http://www.w3.org/1999/02/22-rdf-syntax-ns#"
   xmlns:svg="http://www.w3.org/2000/svg"
   xmlns="http://www.w3.org/2000/svg"
   xmlns:xlink="http://www.w3.org/1999/xlink"
   xmlns:sodipodi="http://sodipodi.sourceforge.net/DTD/sodipodi-0.dtd"
   xmlns:inkscape="http://www.inkscape.org/namespaces/inkscape"
   width="200"
   height="200"
   viewBox="0 0 199.99999 200"
   id="svg2"
   version="1.1"
   inkscape:version="0.91 r13725"
   sodipodi:docname="appstream-logo.svg"
   inkscape:export-filename="/home/matthias/Development/AppStream/appstream/docs/sources/images/appstream-logo.png"
   inkscape:export-xdpi="64.799988"
   inkscape:export-ydpi="64.799988">
  <defs
     id="defs4">
    <linearGradient
       id="linearGradient4588"
       inkscape:collect="always">
      <stop
         id="stop4590"
         offset="0"
         style="stop-color:#375a7d;stop-opacity:1" />
      <stop
         id="stop4592"
         offset="1"
         style="stop-color:#4ce0c6;stop-opacity:1" />
    </linearGradient>
    <linearGradient
       id="linearGradient4502"
       inkscape:collect="always">
      <stop
         id="stop4504"
         offset="0"
         style="stop-color:#909c9c;stop-opacity:1;" />
      <stop
         id="stop4506"
         offset="1"
         style="stop-color:#eff1f1;stop-opacity:1" />
    </linearGradient>
    <linearGradient
       id="linearGradient4378-3"
       inkscape:collect="always">
      <stop
         id="stop4498"
         offset="0"
         style="stop-color:#6f8181;stop-opacity:1" />
      <stop
         id="stop4500"
         offset="1"
         style="stop-color:#b0b8b8;stop-opacity:1" />
    </linearGradient>
    <linearGradient
       inkscape:collect="always"
       id="linearGradient4420">
      <stop
         style="stop-color:#375a7d;stop-opacity:1"
         offset="0"
         id="stop4422" />
      <stop
         style="stop-color:#338173;stop-opacity:1"
         offset="1"
         id="stop4424" />
    </linearGradient>
    <linearGradient
       inkscape:collect="always"
       id="linearGradient4402">
      <stop
         style="stop-color:#3b85b5;stop-opacity:1"
         offset="0"
         id="stop4404" />
      <stop
         style="stop-color:#4ce0c6;stop-opacity:1"
         offset="1"
         id="stop4406" />
    </linearGradient>
    <linearGradient
       inkscape:collect="always"
       xlink:href="#linearGradient4502"
       id="linearGradient4384"
       x1="25.681002"
       y1="221"
       x2="25.681002"
       y2="-40.179565"
       gradientUnits="userSpaceOnUse" />
    <linearGradient
       inkscape:collect="always"
       xlink:href="#linearGradient4378-3"
       id="linearGradient4392"
       x1="58.5"
       y1="58.5"
       x2="188.25"
       y2="188.25"
       gradientUnits="userSpaceOnUse" />
    <linearGradient
       inkscape:collect="always"
       xlink:href="#linearGradient4588"
       id="linearGradient4400"
       x1="77.502838"
       y1="329.51709"
       x2="21.881519"
       y2="36.245018"
       gradientUnits="userSpaceOnUse" />
    <linearGradient
       inkscape:collect="always"
       xlink:href="#linearGradient4402"
       id="linearGradient4418"
       x1="109.17695"
       y1="309.23758"
       x2="62.449219"
       y2="10"
       gradientUnits="userSpaceOnUse" />
    <linearGradient
       inkscape:collect="always"
       xlink:href="#linearGradient4420"
       id="linearGradient4426"
       x1="110.83452"
       y1="1002.6705"
       x2="75.462982"
       y2="914.17053"
       gradientUnits="userSpaceOnUse" />
    <linearGradient
       inkscape:collect="always"
       xlink:href="#linearGradient4502"
       id="linearGradient4440"
       x1="74.999992"
       y1="952.36218"
       x2="124.99999"
       y2="952.36218"
       gradientUnits="userSpaceOnUse"
       gradientTransform="translate(-1052.3622,-852.36219)" />
    <linearGradient
       inkscape:collect="always"
       xlink:href="#linearGradient4378-3"
       id="linearGradient4514"
       x1="98.610558"
       y1="950.32416"
       x2="105.94965"
       y2="957.66327"
       gradientUnits="userSpaceOnUse" />
    <linearGradient
       inkscape:collect="always"
       xlink:href="#linearGradient4588"
       id="linearGradient4408-2"
       x1="128.54486"
       y1="268.88226"
       x2="16.262924"
       y2="-31.372583"
       gradientUnits="userSpaceOnUse"
       gradientTransform="translate(-7.6293945e-6,852.36216)" />
    <linearGradient
       gradientTransform="translate(-7.6e-6,852.36216)"
       inkscape:collect="always"
       xlink:href="#linearGradient4588"
       id="linearGradient4400-2"
       x1="77.502838"
       y1="329.51709"
       x2="21.881519"
       y2="36.245018"
       gradientUnits="userSpaceOnUse" />
  </defs>
  <sodipodi:namedview
     id="base"
     pagecolor="#ffffff"
     bordercolor="#666666"
     borderopacity="1.0"
     inkscape:pageopacity="0.0"
     inkscape:pageshadow="2"
     inkscape:zoom="1.4142136"
     inkscape:cx="-132.7705"
     inkscape:cy="106.22598"
     inkscape:document-units="px"
     inkscape:current-layer="layer1"
     showgrid="false"
     units="px"
     inkscape:snap-bbox="true"
     inkscape:bbox-nodes="true"
     inkscape:object-nodes="false"
     inkscape:snap-nodes="true"
     inkscape:window-width="1920"
     inkscape:window-height="1016"
     inkscape:window-x="0"
     inkscape:window-y="0"
     inkscape:window-maximized="1"
     inkscape:snap-global="false">
    <inkscape:grid
       type="xygrid"
       id="grid4136" />
  </sodipodi:namedview>
  <metadata
     id="metadata7">
    <rdf:RDF>
      <cc:Work
         rdf:about="">
        <dc:format>image/svg+xml</dc:format>
        <dc:type
           rdf:resource="http://purl.org/dc/dcmitype/StillImage" />
        <dc:title />
      </cc:Work>
    </rdf:RDF>
  </metadata>
  <g
     inkscape:label="Layer 1"
     inkscape:groupmode="layer"
     id="layer1"
     transform="translate(0,-852.36216)">
    <path
       style="fill:url(#linearGradient4426);fill-rule:evenodd;stroke:none;stroke-width:1px;stroke-linecap:butt;stroke-linejoin:miter;stroke-opacity:1;fill-opacity:1"
       d="m 115.2584,903.69296 c 12.72792,7.24784 10.6066,12.55114 11.66726,16.97056 1.06066,4.41942 -1.94455,14.84924 -6.18719,19.79899 -4.24264,4.94975 -3.53553,11.31371 0.17678,12.72792 3.71231,1.41422 12.02082,-2.65165 10.42982,-10.42982 -1.59099,-7.77818 -1.06066,-16.61701 3.35876,-15.9099 4.41942,0.7071 14.14214,15.20279 3.00521,23.86485 -11.13694,8.66206 -14.84925,15.2028 -11.31371,21.56676 3.53553,6.36396 -12.55115,23.33452 -28.461049,18.9151 -15.909902,-4.41941 -10.783378,-12.72792 -21.036426,-17.50089 -10.253049,-4.77297 -18.031223,1.23744 -22.273864,-6.36396 -4.242641,-7.6014 -4.949748,-22.62742 -3.005204,-28.8146 1.944544,-6.18719 -28.284271,-0.70711 -28.284271,-0.70711 l 28.991378,56.56854 49.851026,25.8094 60.10408,-27.57716 3.18198,-72.832 -47.72971,-22.62742 z"
       id="path4286"
       inkscape:connector-curvature="0" />
    <path
       style="opacity:1;fill:url(#linearGradient4392);fill-opacity:1.0;stroke:none;stroke-width:2;stroke-miterlimit:4;stroke-dasharray:none;stroke-opacity:1"
       d="m 100,30 a 70,70 0 0 0 -70,70 70,70 0 0 0 70,70 70,70 0 0 0 70,-70 70,70 0 0 0 -70,-70 z m 0,20 a 50,50 0 0 1 50,50 50,50 0 0 1 -50,50 50,50 0 0 1 -50,-50 50,50 0 0 1 50,-50 z"
       id="path4183"
       inkscape:connector-curvature="0"
       transform="translate(-7.6293945e-6,852.36216)" />
    <path
       style="opacity:1;fill:url(#linearGradient4384);fill-opacity:1;stroke:none;stroke-width:2;stroke-miterlimit:4;stroke-dasharray:none;stroke-opacity:1"
       d="m 100,2.75 c 0,0 -12.780424,-2.07959977 -19.056641,-0.8320312 L 77.294922,23.349609 C 65.194612,26.930094 54.112923,33.322243 44.955078,42.003906 L 24.568359,34.449219 C 16.170309,44.137972 9.7138731,55.351362 5.5507812,67.478516 L 22.294922,81.361328 C 20.800856,87.462575 20.030577,93.718558 20,100 c 0.03073,6.28079 0.801008,12.53611 2.294922,18.63672 L 5.5605469,132.51367 c 2.0896721,6.06306 4.7527811,11.89681 7.9452181,17.42487 3.192437,5.52807 32.757907,0.53607 32.757907,0.53607 l 37.533203,22.69336 34.908205,-2.01758 39.33984,-23.1543 11.91016,-25.85742 5,-44.275389 -17.71875,-28.33789 -36.28321,-21.69336 z M 100,40 c 33.13708,1.3e-5 59.99999,26.86292 60,60 -1e-5,33.13708 -26.86292,59.99999 -60,60 -33.13708,-1e-5 -59.999987,-26.86292 -60,-60 1.3e-5,-33.13708 26.86292,-59.999987 60,-60 z"
       id="path4138"
       inkscape:connector-curvature="0"
       transform="translate(-7.6293945e-6,852.36216)"
       sodipodi:nodetypes="ccccccccccscccccccccsssss" />
    <path
       style="opacity:1;fill:url(#linearGradient4418);fill-opacity:1;stroke:none;stroke-width:2;stroke-miterlimit:4;stroke-dasharray:none;stroke-opacity:1"
       d="M 99.941177,1.2413431 81.123047,1.8847656 C 99.46359,8.2936564 98.55848,11.601007 106.75,25.75 115,40 147.5,36.5 152.25,55.5 c 4.75,19 -17,36.5 -12.75,42 4.25,5.5 12,2.75 8,14 -4,11.25 -12.5,28.75 -35.25,29.5 -22.749998,0.75 -31.75,1 -32.5,10.25 -0.75,9.25 -31,-12 -40.25,-9.25 -9.25,2.75 -14.25,-6.75 -23.25,-2.25 -2.679535,1.33977 -4.323719,3.30397 -5.333984,5.39648 1.213609,2.39371 2.532533,4.73141 3.933593,7.01954 L 31,150 l 49.75,14.75 23.5,12.5 L 119.75,154 159,128.75 172.25,86.25 164.25,52 133,34.25 117.25,25.5 115.5,7.5 Z M 142.89453,47.769531 c -2.56712,0.33456 -2.34553,7.630398 -1.76562,12.080078 0.5799,4.44968 2.05787,10.193935 4.625,9.859375 2.56712,-0.33456 5.24983,-6.620632 4.66992,-11.070312 -0.57991,-4.44968 -4.96217,-11.203701 -7.5293,-10.869141 z m -6.25781,50.544922 c -0.36503,-0.0077 -0.7519,0.01572 -1.16406,0.07227 -2.32141,0.31846 -4.39959,3.225751 -5.66602,5.812501 -1.26643,2.58674 0.59866,5.50875 2.70313,6.53906 2.10447,1.03032 7.4445,-0.33317 8.71093,-2.91992 1.18727,-2.42506 0.89148,-9.388319 -4.58398,-9.503907 z m -34.91016,34.029297 c -4.033195,0.0581 -5.195308,4.73437 -1.47656,6.15625 4.25,1.625 13,2.25 27.5,-2.875 -9.1852,2.1786 -18.625,-1.375 -24.125,-3 -0.6875,-0.20312 -1.32227,-0.28955 -1.89844,-0.28125 z"
       id="path4138-7-3"
       inkscape:connector-curvature="0"
       sodipodi:nodetypes="ccsssssssscccccccccccccssssssssssssscss"
       transform="translate(-7.6293945e-6,852.36216)" />
    <g
       id="g4473">
      <circle
         transform="matrix(0,-1,1,0,0,0)"
         r="25"
         cy="99.999992"
         cx="-952.36218"
         id="path4432"
         style="opacity:1;fill:url(#linearGradient4440);fill-opacity:1.0;stroke:none;stroke-width:2;stroke-miterlimit:4;stroke-dasharray:none;stroke-opacity:1" />
      <path
         inkscape:connector-curvature="0"
         id="rect4446"
         d="m 117.80967,934.33572 a 25,25 0 0 0 -1.47774,-1.35068 l -35.221375,35.22137 a 25,25 0 0 0 1.343777,1.48466 25,25 0 0 0 2.270478,1.97216 l 35.06393,-35.06394 a 25,25 0 0 0 -1.97907,-2.26357 z"
         style="opacity:1;fill:url(#linearGradient4514);fill-opacity:1;stroke:none;stroke-width:2;stroke-miterlimit:4;stroke-dasharray:none;stroke-opacity:1" />
    </g>
    <path
       style="opacity:1;fill:url(#linearGradient4408-2);fill-opacity:1;stroke:none;stroke-width:2;stroke-miterlimit:4;stroke-dasharray:none;stroke-opacity:1"
       d="m 99.999992,852.36216 c -6.39895,0.0281 -12.780421,0.6704 -19.056641,1.91797 0,0 26.006439,-0.61434 29.718749,9.28516 3.71231,9.89949 -3.71128,7.95509 -0.5293,16.9707 3.18198,9.01561 50.20282,4.41853 53.03125,44.90039 1.41421,20.24094 -4.31274,33.5899 -12.88476,33.26172 -4.76644,-0.18248 -17.22916,0.37457 -17.16602,5.27539 0.0964,7.47987 9.71141,3.2223 12.0293,1.94726 7.68463,-4.22722 11.30867,-3.74222 11.6582,1.41211 1.57842,23.27614 -55.71544,26.35074 -60.810544,34.64844 -3.093592,5.0381 3.171433,9.2142 7.203124,9.7676 4.50754,0.6187 5.96568,4.2862 2.69531,7.9101 -6.540679,7.2479 -54.27055,-26.8705 -72.124996,-23.1582 -8.46969,1.761 -14.923688,4.6725 -19.396484,7.25 2.99612,4.992 6.423049,9.7264 10.259765,14.1407 l 20.386719,-7.5547 c 9.1376,8.6881 20.199383,15.0933 32.283203,18.6933 l 2.490234,14.627 c 15.21006,3.8014 39.896539,0.2956 40.773739,-12.8624 1.06065,-15.9099 22.62859,-8.1313 42.07403,-27.2232 19.44544,-19.09192 14.14145,-53.38633 10.95947,-66.4678 -2.04058,-8.38909 26.99076,-38.46792 -11.2838,-45.43099 l -7.32422,2.71484 c -9.13759,-8.68811 -20.19937,-15.09336 -32.28321,-18.69336 l -3.65429,-21.46094 c -6.27518,-1.23133 -12.654,-1.8579 -19.048828,-1.87109 z m 5.707028,8.87305 c -0.35407,0.007 -0.73942,0.0991 -1.16406,0.29297 -2.26475,1.03392 -3.70999,4.43211 -2.61524,6.83007 1.09474,2.39797 3.68839,4.9226 5.95313,3.88868 2.26472,-1.03393 2.2803,-5.10985 1.18555,-7.50782 -0.88948,-1.94834 -1.82507,-3.53297 -3.35938,-3.5039 z m 3.88086,22.3164 c -0.27136,0.0221 -0.50857,0.12688 -0.69141,0.33985 -0.73136,0.85188 -0.7148,2.53153 0.32227,3.42187 1.03707,0.89036 2.70028,0.65462 3.43164,-0.19726 0.73136,-0.85189 0.67574,-1.40263 -0.36133,-2.29297 -0.77781,-0.66776 -1.88709,-1.33765 -2.70117,-1.27149 z m 52.63086,46.46094 c -2.10115,15.24939 -6.09375,16.09961 -11.34375,19.59961 -3.78589,2.52392 2.53539,7.56937 6.375,1.625 3.60463,-5.58058 4.93145,-8.10877 4.96875,-21.22461 z m -40.41992,33.78516 c -2.63604,0 -5.12695,1.31119 -5.12695,3.80078 -2e-5,2.48959 2.49091,5.21484 5.12695,5.21484 2.63604,0 6.00976,-1.31119 6.00976,-3.80078 0,-2.4896 -3.37372,-5.21484 -6.00976,-5.21484 z m 30.14062,2.13086 c -0.82246,0.0593 -1.88825,0.47622 -3.26953,1.40429 -1.94491,1.30678 -5.83398,2.51051 -5.83398,5.39063 0,2.88012 2.95958,4.68555 5.30273,4.68555 2.34315,0 6.54102,-3.57301 6.54102,-6.45313 0,-2.16008 -0.27284,-5.20519 -2.74024,-5.02734 z M 31.70507,988.1317 c -2.255968,0.059 -4.109374,0.416 -5.4375,0.9238 -4.249998,1.625 -2.124998,7.5 3.375,5.875 5.500004,-1.625 11.403572,-4.6465 21.472656,-1.2304 -7.538071,-4.3742 -14.447025,-5.6973 -19.410156,-5.5684 z m 68.089844,24.5195 c -0.979695,0.02 -1.723221,0.4502 -1.861328,1.5274 -0.441941,3.4471 0.973848,4.0659 3.537104,4.5078 4.24264,0.3536 5.12558,-0.7074 4.33008,-2.7403 -0.5469,-1.3976 -3.85053,-3.3386 -6.005856,-3.2949 z"
       id="path4138-7-5-6"
       inkscape:connector-curvature="0"
       sodipodi:nodetypes="ccssssssssssscccccssscccccccsssccssssccsscssssscssssccsscccscsc" />
    <path
       style="opacity:1;fill:url(#linearGradient4400);fill-opacity:1;stroke:none;stroke-width:2;stroke-miterlimit:4;stroke-dasharray:none;stroke-opacity:1"
       d="m 175.37305,34.470703 -13.0625,4.839844 c 24.83953,17.216122 0.60871,62.800643 5.62695,69.826173 5.3033,7.42462 13.08216,19.79874 -6.36328,38.89062 -19.44544,19.09188 -42.78115,5.65651 -43.8418,21.56641 -0.8772,13.15803 -23.088804,20.55287 -37.945311,21.70117 l 1.164063,6.83399 C 87.226352,199.36021 93.60517,199.9868 100,200 c 6.39895,-0.028 12.78042,-0.67037 19.05664,-1.91797 l 3.64844,-21.43164 c 12.10031,-3.5805 23.182,-9.9726 32.33984,-18.6543 l 20.38672,7.55469 c 8.39805,-9.6887 14.85448,-20.90216 19.01758,-33.0293 L 177.70508,118.63867 C 179.19914,112.53742 179.96942,106.28144 180,100 179.9693,93.71921 179.19899,87.463891 177.70508,81.363281 L 194.43945,67.486328 C 190.26011,55.360218 183.78702,44.151333 175.37305,34.470703 Z M 148.50391,139.53125 c -10.43854,2.12659 -14.16044,7.4041 -11.92383,12.87109 2.23656,5.4667 9.26495,3.18113 15.86133,0.48243 6.59637,-2.6987 17.67627,-16.87054 18.91211,-22.64649 0.83803,-3.9167 -13.21316,7.32979 -22.84961,9.29297 z"
       id="path4138-7-5-1"
       inkscape:connector-curvature="0"
       sodipodi:nodetypes="ccssscccccccccccccsssss"
       transform="translate(-7.6293945e-6,852.36216)" />
    <path
       style="opacity:1;fill:url(#linearGradient4400-2);fill-opacity:1;stroke:none;stroke-width:2;stroke-miterlimit:4;stroke-dasharray:none;stroke-opacity:1"
       d="m 175.37304,886.83286 -13.0625,4.83985 c 24.83953,17.21612 0.60871,62.80064 5.62695,69.82617 5.3033,7.42462 13.08216,19.79874 -6.36328,38.89062 -19.44544,19.0919 -42.78115,5.6565 -43.8418,21.5664 -0.8772,13.158 -23.088802,20.5529 -37.945309,21.7012 l 1.164063,6.834 c 6.27518,1.2313 12.653998,1.8579 19.048828,1.8711 6.398948,-0.028 12.780418,-0.6704 19.056638,-1.918 l 3.64844,-21.4316 c 12.10031,-3.5805 23.182,-9.9726 32.33984,-18.6543 l 20.38672,7.5546 c 8.39805,-9.6887 14.85448,-20.90212 19.01758,-33.02926 l -16.74414,-13.88281 c 1.49406,-6.10125 2.26434,-12.35723 2.29492,-18.63867 -0.0307,-6.28079 -0.80101,-12.53611 -2.29492,-18.63672 l 16.73437,-13.87695 c -4.17934,-12.12611 -10.65243,-23.335 -19.0664,-33.01563 z M 148.5039,991.89341 c -10.43854,2.12659 -14.16044,7.4041 -11.92383,12.87109 2.23656,5.4667 9.26495,3.1811 15.86133,0.4824 6.59637,-2.6987 17.67627,-16.87051 18.91211,-22.64646 0.83803,-3.9167 -13.21316,7.32979 -22.84961,9.29297 z"
       id="path4138-7-5-1-9"
       inkscape:connector-curvature="0"
       sodipodi:nodetypes="ccssscccccccccccccsssss" />
    <path
       style="opacity:0.2;fill:#172525;fill-opacity:1;stroke:none;stroke-width:2;stroke-miterlimit:4;stroke-dasharray:none;stroke-opacity:1"
       d="m 6.1015625,65.935547 c -0.1856886,0.51337 -0.373393,1.026234 -0.5507813,1.542969 L 21.910156,81.042969 c 0.12469,-0.56133 0.24792,-1.122808 0.384766,-1.681641 z m 187.7851575,0.0078 -16.18164,13.419922 c 0.13683,0.558774 0.26009,1.120371 0.38476,1.681641 l 16.34961,-13.558594 c -0.17805,-0.516615 -0.36638,-1.02973 -0.55273,-1.542969 z M 6.109375,132.05859 5.5605469,132.51367 c 2.0896721,6.06306 4.6564131,11.95456 7.9453121,17.42578 3.827077,6.3665 7.284378,11.17555 11.121094,15.58985 l 20.386719,-7.55469 c 9.1376,8.6881 20.199383,15.09336 32.283203,18.69336 l 2.490234,14.62695 1.164063,6.83399 C 87.226352,199.36021 93.60517,199.9868 100,200 c 6.39895,-0.028 12.78042,-0.67037 19.05664,-1.91797 l 3.64844,-21.43164 c 12.10031,-3.5805 23.182,-9.9726 32.33984,-18.6543 l 20.38672,7.55469 c 8.39805,-9.6887 14.85448,-20.90216 19.01758,-33.0293 l -0.55078,-0.45703 c -4.17221,11.5348 -10.42659,22.21046 -18.4668,31.48633 l -20.38672,-7.55469 c -9.15784,8.6817 -20.23953,15.0738 -32.33984,18.6543 l -3.64844,21.43164 C 112.78042,197.32963 106.39895,197.972 100,198 93.60517,197.9868 87.226352,197.36021 80.951172,196.12891 l -1.164063,-6.83399 -2.490234,-14.62695 c -12.08382,-3.6 -23.145603,-10.00526 -32.283203,-18.69336 L 24.626953,163.5293 C 20.790237,159.115 17.332936,154.30595 13.505859,147.93945 10.497227,142.93448 8.0969809,137.57659 6.109375,132.05859 Z"
       transform="translate(-7.6293945e-6,852.36216)"
       id="path4138-2-1"
       inkscape:connector-curvature="0"
       sodipodi:nodetypes="ccccccccccccsccccccccccccccccccccccsc" />
  </g>
  <g
     inkscape:groupmode="layer"
     id="layer2"
     inkscape:label="appstream"
     style="display:inline" />
</svg>
